<svg
    width="55"
    height="53"
    viewBox="0 0 44 44"
    fill="none"
    xmlns="http://www.w3.org/2000/svg"
    >
    <path
        fill-rule="evenodd"
        clip-rule="evenodd"
        d="M14.479 9.67999C13.962 9.67974 13.4555 9.82516 13.0185 10.0993C12.5815 10.3735 12.2319 10.7652 12.0103 11.2288C10.9429 11.2381 10.1127 11.2861 9.36991 11.5742C8.48319 11.9184 7.71202 12.5035 7.14463 13.2624C6.57193 14.0259 6.30196 15.0079 5.93368 16.3569L5.86034 16.6202L5.0598 21.2108C4.77111 21.4091 4.51987 21.6445 4.3014 21.9217C2.89539 23.7075 3.56484 26.3668 4.90375 31.6807C5.75423 35.0617 6.18024 36.7515 7.45049 37.7365C8.72074 38.72 10.4763 38.72 13.9874 38.72H21.2126C24.7237 38.72 26.4793 38.72 27.7495 37.7365C29.0198 36.7515 29.4442 35.0617 30.2962 31.6807C31.6352 26.3652 32.3046 23.709 30.8986 21.9217C30.6837 21.6469 30.4273 21.4066 30.1386 21.2093L29.3381 16.6217L29.2663 16.3584C28.8965 15.0079 28.6265 14.0259 28.0554 13.2608C27.4878 12.5025 26.7166 11.918 25.8301 11.5742C25.0873 11.2861 24.2555 11.2381 23.1897 11.2303C22.9684 10.7664 22.6188 10.3744 22.1818 10.1C21.7448 9.82553 21.2382 9.67988 20.721 9.67999H14.479ZM27.6153 20.3605L27.0504 17.1266C26.6088 15.5159 26.448 15.0094 26.1765 14.647C25.871 14.2383 25.4556 13.9232 24.9781 13.7378C24.6347 13.6047 24.2196 13.5659 23.1866 13.5551C22.9648 14.0177 22.6155 14.4084 22.1791 14.6819C21.7427 14.9555 21.2371 15.1007 20.721 15.1008H14.479C13.9628 15.1007 13.4573 14.9555 13.0209 14.6819C12.5845 14.4084 12.2352 14.0177 12.0134 13.5551C10.9788 13.5659 10.5653 13.6047 10.2219 13.7378C9.74438 13.9232 9.32904 14.2383 9.02348 14.647C8.75195 15.0094 8.59122 15.5143 8.1496 17.1251L7.58469 20.3605C9.14208 20.1344 11.2175 20.1344 13.9874 20.1344H21.2126C23.9824 20.1344 26.0579 20.1344 27.6153 20.3605ZM11.358 25.168C11.6684 25.168 11.9661 25.2904 12.1856 25.5082C12.4051 25.7261 12.5284 26.0215 12.5284 26.3296V32.5248C12.5284 32.8329 12.4051 33.1283 12.1856 33.3462C11.9661 33.564 11.6684 33.6864 11.358 33.6864C11.0476 33.6864 10.7499 33.564 10.5304 33.3462C10.3109 33.1283 10.1876 32.8329 10.1876 32.5248V26.3296C10.1876 26.0215 10.3109 25.7261 10.5304 25.5082C10.7499 25.2904 11.0476 25.168 11.358 25.168ZM25.0124 26.3296C25.0124 26.0215 24.8891 25.7261 24.6696 25.5082C24.4501 25.2904 24.1524 25.168 23.842 25.168C23.5316 25.168 23.2339 25.2904 23.0144 25.5082C22.7949 25.7261 22.6716 26.0215 22.6716 26.3296V32.5248C22.6716 32.8329 22.7949 33.1283 23.0144 33.3462C23.2339 33.564 23.5316 33.6864 23.842 33.6864C24.1524 33.6864 24.4501 33.564 24.6696 33.3462C24.8891 33.1283 25.0124 32.8329 25.0124 32.5248V26.3296ZM17.6 25.168C17.9104 25.168 18.2081 25.2904 18.4276 25.5082C18.6471 25.7261 18.7704 26.0215 18.7704 26.3296V32.5248C18.7704 32.8329 18.6471 33.1283 18.4276 33.3462C18.2081 33.564 17.9104 33.6864 17.6 33.6864C17.2896 33.6864 16.9919 33.564 16.7724 33.3462C16.5529 33.1283 16.4296 32.8329 16.4296 32.5248V26.3296C16.4296 26.0215 16.5529 25.7261 16.7724 25.5082C16.9919 25.2904 17.2896 25.168 17.6 25.168Z"
        fill="white"
    />
    <circle cx="30.8" cy="14.96" r="9.68" fill="#4DAEFC" />
    <path
        d="M34.6198 17.68V19H28.4278V17.956L31.7638 14.788C32.1398 14.428 32.3918 14.116 32.5198 13.852C32.6558 13.58 32.7238 13.312 32.7238 13.048C32.7238 12.656 32.5918 12.356 32.3278 12.148C32.0638 11.94 31.6758 11.836 31.1638 11.836C30.3078 11.836 29.6518 12.128 29.1958 12.712L28.1038 11.872C28.4318 11.432 28.8718 11.092 29.4238 10.852C29.9838 10.604 30.6078 10.48 31.2958 10.48C32.2078 10.48 32.9358 10.696 33.4798 11.128C34.0238 11.56 34.2958 12.148 34.2958 12.892C34.2958 13.348 34.1998 13.776 34.0078 14.176C33.8158 14.576 33.4478 15.032 32.9038 15.544L30.6598 17.68H34.6198Z"
        fill="white"
    />
</svg>