<svg
    viewBox="0 0 14 14"
    fill="none"
    xmlns="http://www.w3.org/2000/svg"
>
    <path
    d="M12.775 1.23413C12.6902 1.14915 12.5895 1.08173 12.4786 1.03573C12.3677 0.989731 12.2488 0.966054 12.1288 0.966054C12.0087 0.966054 11.8898 0.989731 11.7789 1.03573C11.668 1.08173 11.5673 1.14915 11.4825 1.23413L7 5.70746L2.5175 1.22496C2.43263 1.14009 2.33188 1.07277 2.221 1.02684C2.11011 0.980915 1.99127 0.957275 1.87125 0.957275C1.75123 0.957275 1.63238 0.980915 1.5215 1.02684C1.41062 1.07277 1.30987 1.14009 1.225 1.22496C1.14013 1.30983 1.07281 1.41058 1.02688 1.52146C0.980953 1.63235 0.957314 1.75119 0.957314 1.87121C0.957314 1.99123 0.980953 2.11008 1.02688 2.22096C1.07281 2.33184 1.14013 2.43259 1.225 2.51746L5.7075 6.99996L1.225 11.4825C1.14013 11.5673 1.07281 11.6681 1.02688 11.779C0.980953 11.8899 0.957314 12.0087 0.957314 12.1287C0.957314 12.2487 0.980953 12.3676 1.02688 12.4785C1.07281 12.5893 1.14013 12.6901 1.225 12.775C1.30987 12.8598 1.41062 12.9272 1.5215 12.9731C1.63238 13.019 1.75123 13.0426 1.87125 13.0426C1.99127 13.0426 2.11011 13.019 2.221 12.9731C2.33188 12.9272 2.43263 12.8598 2.5175 12.775L7 8.29246L11.4825 12.775C11.5674 12.8598 11.6681 12.9272 11.779 12.9731C11.8899 13.019 12.0087 13.0426 12.1288 13.0426C12.2488 13.0426 12.3676 13.019 12.4785 12.9731C12.5894 12.9272 12.6901 12.8598 12.775 12.775C12.8599 12.6901 12.9272 12.5893 12.9731 12.4785C13.019 12.3676 13.0427 12.2487 13.0427 12.1287C13.0427 12.0087 13.019 11.8899 12.9731 11.779C12.9272 11.6681 12.8599 11.5673 12.775 11.4825L8.2925 6.99996L12.775 2.51746C13.1233 2.16913 13.1233 1.58246 12.775 1.23413Z"
    fill="white"
    />
</svg>