<svg
    viewBox="0 0 54 54"
    fill="none"
    xmlns="http://www.w3.org/2000/svg"
    >
    <mask
        id="mask0_1_1067"
        style="mask-type: luminance"
        maskUnits="userSpaceOnUse"
        x="0"
        y="0"
        width="54"
        height="54"
    >
        <path
        d="M27 52C30.2837 52.0043 33.5358 51.3596 36.5695 50.1029C39.6032 48.8463 42.3587 47.0025 44.6775 44.6775C47.0025 42.3587 48.8463 39.6032 50.1029 36.5695C51.3596 33.5358 52.0043 30.2837 52 27C52.0042 23.7164 51.3595 20.4642 50.1028 17.4306C48.8462 14.3969 47.0024 11.6414 44.6775 9.32252C42.3587 6.99755 39.6032 5.15377 36.5695 3.89713C33.5358 2.64049 30.2837 1.99577 27 2.00002C23.7164 1.99583 20.4642 2.64059 17.4306 3.89722C14.3969 5.15386 11.6414 6.99761 9.32252 9.32252C6.99761 11.6414 5.15386 14.3969 3.89722 17.4306C2.64059 20.4642 1.99583 23.7164 2.00002 27C1.99577 30.2837 2.64049 33.5358 3.89713 36.5695C5.15377 39.6032 6.99755 42.3587 9.32252 44.6775C11.6414 47.0024 14.3969 48.8462 17.4306 50.1028C20.4642 51.3595 23.7164 52.0042 27 52Z"
        fill="white"
        stroke="white"
        stroke-width="4"
        stroke-linejoin="round"
        />
        <path
        fill-rule="evenodd"
        clip-rule="evenodd"
        d="M27 43.25C27.8288 43.25 28.6237 42.9208 29.2097 42.3347C29.7958 41.7487 30.125 40.9538 30.125 40.125C30.125 39.2962 29.7958 38.5013 29.2097 37.9153C28.6237 37.3292 27.8288 37 27 37C26.1712 37 25.3763 37.3292 24.7903 37.9153C24.2042 38.5013 23.875 39.2962 23.875 40.125C23.875 40.9538 24.2042 41.7487 24.7903 42.3347C25.3763 42.9208 26.1712 43.25 27 43.25Z"
        fill="black"
        />
        <path
        d="M27 12V32"
        stroke="black"
        stroke-width="4"
        stroke-linecap="round"
        stroke-linejoin="round"
        />
    </mask>
    <g mask="url(#mask0_1_1067)">
        <path d="M-3 -3H57V57H-3V-3Z" fill="#4DAEFC" />
    </g>
</svg>