                <svg viewBox="0 0 80 26" fill="none" xmlns="http://www.w3.org/2000/svg">
                    <g filter="url(#filter0_i_1_12)">
                        <path
                            d="M23.7916 10.6369H16.0322C15.5171 10.6369 15.0387 10.3696 14.7677 9.93051L10.6262 3.2202C10.4045 2.86092 10.013 2.64228 9.59156 2.64228H9.52603C9.00342 2.64228 8.57976 3.06694 8.57976 3.59079V3.69423C8.57976 3.89247 8.634 4.08691 8.73656 4.25641L12.7098 10.8225C13.0923 11.4546 12.6383 12.2629 11.9008 12.2629H3.98967C3.56604 12.2629 3.17292 12.042 2.95185 11.6798L0.119215 7.03852C-0.0730121 6.72355 -0.0293618 6.3183 0.225504 6.05172L5.69203 0.333978C5.896 0.120633 6.17802 0 6.47282 0H18.2915C18.7233 0 19.1228 0.229473 19.3412 0.602953L24.4914 9.41281C24.8082 9.9548 24.4183 10.6369 23.7916 10.6369Z"
                            fill="url(#paint0_linear_1_12)" />
                        <path
                            d="M1.2084 14.3631L8.96777 14.3631C9.48289 14.3631 9.96132 14.6304 10.2323 15.0695L14.3738 21.7798C14.5955 22.1391 14.987 22.3577 15.4084 22.3577H15.474C15.9966 22.3577 16.4202 21.9331 16.4202 21.4092V21.3058C16.4202 21.1075 16.366 20.9131 16.2634 20.7436L12.2902 14.1775C11.9077 13.5454 12.3617 12.7371 13.0992 12.7371L21.0103 12.7371C21.434 12.7371 21.8271 12.958 22.0482 13.3202L24.8808 17.9615C25.073 18.2764 25.0294 18.6817 24.7745 18.9483L19.308 24.666C19.104 24.8794 18.822 25 18.5272 25L6.70853 25C6.27668 25 5.87719 24.7705 5.65885 24.397L0.508611 15.5872C0.191765 15.0452 0.581696 14.3631 1.2084 14.3631Z"
                            fill="url(#paint1_linear_1_12)" />
                    </g>
                    <path
                        d="M29.1311 8H25.2197C22.7672 8 22 9.15714 22 11.6257V13.5029C22 16.0614 23.0816 16.9871 25.5341 16.9871H28.8041C31.2566 16.9871 32.3508 16.0614 32.3508 13.5029V11.6257C32.3508 9.15714 31.5836 8 29.1311 8ZM29.9361 13.6314C29.9361 14.7886 29.5713 15.0329 28.7538 15.0329H25.597C24.7795 15.0329 24.4148 14.7886 24.4148 13.6314V11.4971C24.4148 10.5457 24.7166 9.96714 25.5844 9.96714H28.7664C29.6342 9.96714 29.9361 10.5457 29.9361 11.4971V13.6314Z"
                        fill="white" />
                    <path
                        d="M44.2888 12.9371C44.3517 12.5514 44.3643 11.8829 44.3643 11.4586C44.3643 11.0214 44.3391 10.3143 44.2762 9.96714C43.9995 8.54 43.1192 8 41.371 8H34.1644V16.9871H36.5037V15.0329H40.5912L41.7105 17H44.3643L43.0814 14.7629C43.7983 14.4543 44.1505 13.8629 44.2888 12.9371ZM36.5037 9.96714H41.1571C41.5973 9.96714 41.9495 10.3271 41.9495 10.7771V12.14C41.9495 12.5771 41.5973 12.95 41.1571 12.95H36.5037V9.96714Z"
                        fill="white" />
                    <path d="M55.6348 8H45.4349V9.96714H49.3589V16.9871H51.7108V9.96714H55.6348V8Z" fill="white" />
                    <path
                        d="M67.1351 9.96714V8H56.9352V16.9871H67.1351V15.0329H59.2745V13.4771H65.9152V11.51H59.2745V9.96714H67.1351Z"
                        fill="white" />
                    <path
                        d="M78.9245 12.9371C78.9874 12.5514 79 11.8829 79 11.4586C79 11.0214 78.9748 10.3143 78.912 9.96714C78.6353 8.54 77.7549 8 76.0067 8H68.8001V16.9871H71.1394V15.0329H75.2269L76.3463 17H79L77.7172 14.7629C78.434 14.4543 78.7862 13.8629 78.9245 12.9371ZM71.1394 9.96714H75.7929C76.2331 9.96714 76.5852 10.3271 76.5852 10.7771V12.14C76.5852 12.5771 76.2331 12.95 75.7929 12.95H71.1394V9.96714Z"
                        fill="white" />
                    <defs>
                        <filter id="filter0_i_1_12" x="0" y="0" width="25" height="29" filterUnits="userSpaceOnUse"
                            color-interpolation-filters="sRGB">
                            <feFlood flood-opacity="0" result="BackgroundImageFix" />
                            <feBlend mode="normal" in="SourceGraphic" in2="BackgroundImageFix" result="shape" />
                            <feColorMatrix in="SourceAlpha" type="matrix"
                                values="0 0 0 0 0 0 0 0 0 0 0 0 0 0 0 0 0 0 127 0" result="hardAlpha" />
                            <feOffset dy="4" />
                            <feGaussianBlur stdDeviation="5" />
                            <feComposite in2="hardAlpha" operator="arithmetic" k2="-1" k3="1" />
                            <feColorMatrix type="matrix" values="0 0 0 0 1 0 0 0 0 1 0 0 0 0 1 0 0 0 0.5 0" />
                            <feBlend mode="normal" in2="shape" result="effect1_innerShadow_1_12" />
                        </filter>
                        <linearGradient id="paint0_linear_1_12" x1="22.0978" y1="21.4092" x2="1.00084" y2="14.8658"
                            gradientUnits="userSpaceOnUse">
                            <stop stop-color="#346EFA" />
                            <stop offset="1" stop-color="#39A9FC" />
                        </linearGradient>
                        <linearGradient id="paint1_linear_1_12" x1="22.0978" y1="21.4092" x2="1.00084" y2="14.8658"
                            gradientUnits="userSpaceOnUse">
                            <stop stop-color="#346EFA" />
                            <stop offset="1" stop-color="#39A9FC" />
                        </linearGradient>
                    </defs>
                </svg>